<?xml version="1.0" standalone="no"?>
<!DOCTYPE svg PUBLIC "-//W3C//DTD SVG 20010904//EN"
 "http://www.w3.org/TR/2001/REC-SVG-20010904/DTD/svg10.dtd">
<svg version="1.0" xmlns="http://www.w3.org/2000/svg"
 width="900.000000pt" height="900.000000pt" viewBox="0 0 900.000000 900.000000"
 preserveAspectRatio="xMidYMid meet">

<g transform="translate(0.000000,900.000000) scale(0.100000,-0.100000)"
fill="#000000" stroke="none">
<path d="M2355 8990 c-101 -10 -314 -53 -425 -86 -537 -159 -930 -409 -1294
-824 -114 -130 -187 -230 -271 -373 -150 -257 -280 -598 -329 -862 -40 -218
-46 -714 -11 -910 61 -343 169 -643 335 -926 l80 -136 2 -1834 c1 -1009 4
-2023 7 -2254 l6 -421 32 -65 c41 -83 139 -183 213 -217 l55 -26 1895 -9
c2506 -13 6011 3 6079 27 94 34 206 146 239 239 10 31 16 122 23 347 10 400
10 6621 0 7032 l-9 318 -27 56 c-33 68 -127 163 -190 194 -69 33 -136 38 -647
46 l-478 7 0 152 c0 84 -5 166 -11 183 -6 18 -26 41 -47 54 -34 21 -51 23
-191 26 -318 7 -326 0 -338 -281 l-6 -147 -571 2 -571 3 -8 160 c-9 178 -21
220 -72 244 -40 19 -367 29 -417 12 -19 -6 -48 -25 -63 -41 l-29 -30 -6 -173
-5 -172 -431 0 -430 0 -115 91 c-146 117 -248 187 -379 262 -293 167 -652 288
-960 321 -130 14 -537 21 -635 11z m480 -595 c199 -6 269 -18 454 -80 301
-102 577 -274 806 -501 575 -571 761 -1407 483 -2168 -195 -537 -644 -995
-1182 -1207 -252 -100 -474 -141 -751 -142 -551 0 -1038 196 -1433 578 -249
240 -414 504 -531 847 -74 220 -86 307 -86 648 1 327 9 385 91 630 207 616
676 1094 1279 1302 239 83 385 107 605 101 52 -1 172 -5 265 -8z m2477 -899
c3 -223 3 -225 28 -251 45 -49 74 -55 272 -55 164 0 186 2 215 20 65 39 68 51
71 292 l4 218 573 0 573 0 6 -182 c9 -250 13 -274 46 -312 l28 -31 221 0 221
0 25 26 c38 38 44 81 45 302 l0 197 390 0 390 0 0 -3545 0 -3545 -3695 0
-3696 0 3 1794 c2 987 6 1798 10 1801 4 4 56 -24 115 -62 314 -203 594 -322
933 -397 161 -35 240 -44 441 -52 373 -14 684 32 1017 152 370 134 707 356
998 656 207 215 344 410 474 673 165 336 237 607 260 975 33 513 -46 911 -276
1386 -41 85 -74 156 -74 159 0 3 85 5 189 5 l189 0 4 -224z"/>
<path d="M2383 7113 c4 -559 8 -1018 10 -1019 2 -2 435 -4 962 -5 l960 -1 0
264 0 263 -710 5 -710 5 -3 753 -2 752 -257 0 -256 0 6 -1017z"/>
<path d="M6999 5811 c-92 -8 -125 -27 -135 -76 -3 -19 -5 -124 -3 -234 4 -188
5 -202 25 -221 34 -35 84 -41 404 -47 325 -6 470 3 514 33 41 26 48 71 44 286
-3 195 -3 198 -28 223 -19 18 -42 27 -95 35 -75 10 -601 11 -726 1z"/>
<path d="M5202 4531 c-26 -5 -54 -18 -70 -34 l-27 -27 0 -213 0 -213 39 -47
38 -47 287 0 c157 1 346 5 419 9 209 14 217 25 217 296 0 206 -7 234 -63 262
-34 16 -72 18 -417 20 -209 0 -399 -2 -423 -6z"/>
<path d="M6956 4531 c-90 -13 -100 -46 -95 -325 4 -161 6 -187 22 -204 37 -41
100 -47 487 -47 512 0 484 -19 478 317 -3 196 -3 198 -28 223 -18 18 -44 28
-85 35 -66 11 -702 11 -779 1z"/>
<path d="M1697 3251 c-29 -4 -56 -16 -70 -29 -21 -22 -22 -28 -22 -246 0 -322
-34 -301 490 -301 397 0 420 3 466 51 24 25 24 27 24 245 l0 219 -25 25 c-18
18 -44 28 -85 35 -66 11 -701 11 -778 1z"/>
<path d="M3381 3220 c-41 -57 -45 -86 -38 -282 7 -183 17 -220 65 -240 16 -6
189 -14 441 -20 l414 -9 28 27 c52 50 59 78 59 247 0 183 -11 252 -45 287
l-25 24 -434 4 -434 4 -31 -42z"/>
<path d="M5215 3253 c-102 -14 -109 -29 -113 -242 -5 -225 -1 -245 48 -298
l39 -43 278 0 c153 1 340 5 416 9 215 13 222 23 222 296 0 208 -7 238 -64 264
-31 13 -90 16 -416 17 -209 1 -393 0 -410 -3z"/>
<path d="M6956 3251 c-55 -8 -82 -33 -91 -85 -4 -18 -5 -119 -3 -224 5 -281
-23 -267 498 -267 520 0 493 -17 488 310 -3 204 -3 205 -28 230 -18 18 -44 28
-85 35 -66 11 -702 11 -779 1z"/>
<path d="M1684 1973 c-17 -2 -42 -15 -55 -29 -24 -25 -24 -28 -24 -249 0 -221
0 -224 24 -248 42 -46 97 -52 466 -52 369 0 424 6 466 52 24 24 24 27 24 243
0 216 0 219 -24 244 -14 15 -43 29 -73 35 -46 10 -730 13 -804 4z"/>
<path d="M3381 1940 c-17 -23 -34 -58 -37 -78 -10 -53 3 -352 17 -391 22 -62
34 -63 499 -69 l416 -5 27 32 c42 50 50 98 45 286 -4 178 -16 233 -56 251 -9
5 -211 10 -449 12 l-432 4 -30 -42z"/>
<path d="M5193 1973 c-39 -5 -79 -43 -87 -84 -3 -18 -6 -108 -6 -201 0 -189 6
-212 63 -267 l36 -34 378 7 c208 4 398 11 423 16 90 17 114 87 108 323 -4 172
-14 205 -70 228 -25 10 -124 14 -423 15 -214 1 -404 -1 -422 -3z"/>
<path d="M6944 1973 c-17 -2 -42 -15 -55 -29 -24 -25 -24 -28 -24 -244 0 -321
-29 -302 480 -304 380 -1 433 5 476 51 23 24 24 31 27 221 4 234 -2 266 -56
290 -32 15 -85 17 -427 18 -214 1 -404 -1 -421 -3z"/>
</g>
</svg>
